<svg width="165" height="157.962" viewBox="0 0 165 157.962" fill="none" xmlns="http://www.w3.org/2000/svg"><path d="M55.529 139.097c0.735 0.374 1.155 0.847 1.257 1.419 0.097 0.583 -0.064 1.286 -0.484 2.111 -0.425 0.837 -1.975 3.017 -4.65 6.541l-0.023 2.241c-1.674 0.174 -3.03 -0.003 -4.067 -0.53 -0.859 -0.437 -1.022 -1.179 -0.49 -2.228 0.159 -0.312 1.04 -1.507 2.643 -3.583 1.591 -2.082 2.546 -3.436 2.864 -4.06l-1.807 -0.919a14.464 14.464 0 0 0 -2.892 -0.648c0.035 -0.235 0.141 -0.525 0.317 -0.871a3.173 3.173 0 0 1 1.478 -1.459c0.64 -0.32 1.3 -0.307 1.981 0.038 0.457 0.232 1.187 0.758 2.19 1.576a3.42 3.42 0 0 1 1.684 0.372Z" fill="#22B3C1"/><path d="M31.499 135.011c-0.526 -0.464 -0.791 -1.072 -0.794 -1.825 -0.013 -0.762 0.336 -1.546 1.048 -2.353 0.704 -0.798 1.498 -1.415 2.383 -1.853 0.877 -0.428 1.736 -0.655 2.577 -0.681a6.935 6.935 0 0 1 2.456 0.364 6.304 6.304 0 0 1 2.099 1.224c1.229 1.083 1.903 2.278 2.021 3.582 0.118 1.304 -0.315 2.515 -1.3 3.632 -1.332 1.511 -2.895 2.31 -4.689 2.397 -1.812 0.088 -3.468 -0.53 -4.97 -1.854a6.175 6.175 0 0 1 -0.915 -1.006c0.17 -0.401 0.424 -0.802 0.762 -1.205a2.48 2.48 0 0 1 -0.678 -0.422Zm3.456 -0.431c-0.232 0.263 -0.554 0.504 -0.965 0.726a2.294 2.294 0 0 1 -1.315 0.242c1.47 0.829 2.767 1.079 3.89 0.751 0.966 -0.282 1.747 -0.762 2.342 -1.437 0.596 -0.676 0.94 -1.34 1.031 -1.993 0.074 -0.652 -0.105 -1.168 -0.536 -1.548 -0.957 -0.844 -2.183 -0.816 -3.678 0.085 0.346 1.139 0.09 2.197 -0.771 3.174Z" fill="#22B3C1"/><path d="M28.601 124.053c-1.67 1.104 -3.411 1.43 -5.224 0.98 -1.814 -0.451 -3.297 -1.548 -4.45 -3.291 -0.594 -0.898 -0.891 -1.721 -0.891 -2.471 -0.011 -0.742 0.239 -1.282 0.751 -1.621 0.511 -0.338 1.02 -0.419 1.526 -0.244 0.499 0.165 0.886 0.456 1.162 0.873 0.27 0.407 0.408 0.855 0.417 1.344 0.002 0.479 -0.144 0.951 -0.437 1.415 0.706 0.478 1.531 0.682 2.475 0.613 0.938 -0.08 1.751 -0.348 2.44 -0.803 0.688 -0.456 1.157 -0.96 1.405 -1.515 0.249 -0.554 0.228 -1.051 -0.063 -1.489 -0.289 -0.439 -0.67 -0.697 -1.142 -0.775 -0.479 -0.088 -1.005 0.057 -1.579 0.437 -1.007 -1.524 -1.151 -2.524 -0.431 -3 0.615 -0.407 1.45 -0.404 2.503 0.009 1.043 0.421 1.982 1.262 2.818 2.525s1.142 2.544 0.923 3.845c-0.238 1.297 -0.972 2.352 -2.204 3.167Z" fill="#22B3C1"/><path d="m19.555 101.871 -0.03 0.208c0.962 0.037 1.786 0.278 2.473 0.722 0.673 0.436 1.13 1.023 1.374 1.759 0.335 1.01 0.223 1.943 -0.336 2.801 -0.56 0.858 -1.475 1.497 -2.745 1.918 -1.972 0.654 -3.841 0.542 -5.608 -0.335 -1.771 -0.889 -2.983 -2.319 -3.637 -4.291a6.835 6.835 0 0 1 -0.325 -1.455 5.787 5.787 0 0 1 0.832 -0.414c-0.577 -0.468 -0.97 -1.017 -1.178 -1.646 -0.288 -0.867 0.038 -1.456 0.976 -1.767 0.332 -0.11 1.399 -0.253 3.2 -0.428 1.796 -0.187 3.098 -0.414 3.906 -0.683 0.807 -0.267 1.304 -0.637 1.491 -1.107 0.802 0.472 1.324 1.071 1.564 1.795 0.236 0.713 0.195 1.307 -0.121 1.781 -0.321 0.462 -0.934 0.843 -1.836 1.142Zm-1.247 4.349c0.582 -0.193 0.994 -0.461 1.236 -0.805 0.227 -0.352 0.264 -0.753 0.115 -1.204 -0.149 -0.452 -0.464 -0.842 -0.942 -1.171 -0.479 -0.328 -1.058 -0.545 -1.738 -0.649 -1.235 0.291 -2.731 0.529 -4.488 0.717 0.398 1.199 1.182 2.112 2.352 2.739 1.17 0.627 2.325 0.751 3.465 0.374Z" fill="#22B3C1"/><path d="M13.901 88.596c0.075 0.873 -0.417 1.354 -1.476 1.446 -0.262 0.023 -1.052 0.034 -2.371 0.035 -1.332 -0.011 -2.272 0.007 -2.821 0.055 -0.548 0.047 -0.959 0.239 -1.231 0.577 -0.907 -0.751 -1.418 -1.799 -1.533 -3.145 -0.117 -1.347 0.468 -2.075 1.752 -2.186a6.741 6.741 0 0 1 1.836 0.105c0.638 0.121 1.214 0.247 1.728 0.378 0.512 0.12 0.917 0.223 1.214 0.31 0.282 0.077 0.669 0.188 1.159 0.334l0.868 0.245c0.246 0.23 0.448 0.527 0.604 0.89 0.156 0.351 0.246 0.669 0.271 0.956Zm1.372 0.183c0.053 0.611 0.336 1.126 0.849 1.547 0.514 0.421 1.07 0.604 1.668 0.553 0.586 -0.05 1.056 -0.279 1.41 -0.687 0.341 -0.418 0.485 -0.934 0.432 -1.544 -0.053 -0.611 -0.336 -1.126 -0.849 -1.547 -0.514 -0.42 -1.064 -0.605 -1.65 -0.554 -0.597 0.052 -1.067 0.287 -1.408 0.705 -0.354 0.407 -0.505 0.916 -0.453 1.527Z" fill="#22B3C1"/><path d="M8.369 78.154c-1.005 -0.131 -1.728 -0.491 -2.168 -1.079 -0.44 -0.587 -0.614 -1.241 -0.519 -1.96 0.095 -0.732 0.35 -1.708 0.762 -2.929 0.412 -1.221 0.665 -2.147 0.761 -2.778a30.031 30.031 0 0 0 -0.332 -3.11c0.335 -0.057 0.745 -0.054 1.229 0.009 1.005 0.131 1.724 0.522 2.156 1.172 0.433 0.637 0.592 1.402 0.475 2.295 -0.029 0.224 -0.081 0.52 -0.154 0.888 3.495 1.151 5.455 1.755 5.877 1.81 1.203 0.158 2.127 0.089 2.771 -0.205 0.461 0.817 0.639 1.63 0.533 2.436 -0.106 0.805 -0.411 1.353 -0.915 1.641 -0.517 0.285 -1.235 0.368 -2.153 0.248 -0.931 -0.121 -3.352 -0.804 -7.265 -2.048 0.002 1.426 0.059 2.633 0.17 3.619 -0.323 0.059 -0.733 0.056 -1.229 -0.009Z" fill="#22B3C1"/><path d="M23.648 52.839a490.403 490.403 0 0 0 -4.615 -3.092c-1.214 -0.796 -2.299 -1.103 -3.255 -0.923 -0.094 -0.839 0.073 -1.583 0.498 -2.232 0.528 -0.805 1.232 -1.137 2.111 -0.995 0.868 0.135 1.972 0.643 3.312 1.52a109.203 109.203 0 0 1 3.81 2.61l0.35 -0.534c-0.927 -1.849 -1.756 -3.14 -2.487 -3.874 -0.54 -0.339 -1.204 -0.662 -1.991 -0.969 -0.79 -0.324 -1.382 -0.494 -1.774 -0.512 -0.096 -0.287 -0.101 -0.633 -0.013 -1.04a3.317 3.317 0 0 1 0.506 -1.218 2.203 2.203 0 0 1 1.081 -0.862c0.467 -0.188 0.936 -0.127 1.407 0.181 0.292 0.192 0.54 0.421 0.739 0.687 0.2 0.266 0.41 0.538 0.631 0.818 0.21 0.272 0.383 0.498 0.52 0.678l3.726 2.532 0.35 -0.533a44.189 44.189 0 0 0 -2.556 -4.009c-0.937 -1.333 -1.734 -2.215 -2.394 -2.647a2.211 2.211 0 0 0 -0.799 -0.322c0.016 -1.006 0.241 -1.839 0.673 -2.498 0.563 -0.858 1.336 -0.964 2.319 -0.32 0.45 0.296 0.939 0.78 1.469 1.457 0.518 0.669 1.154 1.594 1.906 2.776a260.594 260.594 0 0 1 1.164 1.817l1.054 0.377c0.047 0.614 -0.034 1.444 -0.241 2.491 -0.2 1.035 -0.524 1.893 -0.97 2.573 -0.713 1.089 -1.618 1.431 -2.714 1.026 0.307 1.608 0.1 2.961 -0.62 4.06 -0.397 0.607 -0.87 1.031 -1.416 1.271 -0.551 0.223 -1.144 0.125 -1.783 -0.293Z" fill="#22B3C1"/><path d="M33.038 22.04c0.316 0.356 0.403 0.83 0.261 1.425 -0.149 0.585 -0.463 1.089 -0.94 1.513s-0.938 0.667 -1.386 0.729c-0.438 0.055 -0.798 -0.078 -1.08 -0.396 -0.383 -0.43 -0.48 -0.946 -0.294 -1.547a3.249 3.249 0 0 1 0.952 -1.499c0.449 -0.399 0.891 -0.626 1.329 -0.679 0.447 -0.063 0.833 0.089 1.157 0.454Zm7.024 13.417c-0.579 0.515 -1.129 0.744 -1.649 0.687 -0.519 -0.058 -1.041 -0.381 -1.564 -0.97 -0.532 -0.599 -1.65 -2.46 -3.353 -5.583l-1.832 -0.48c0.546 -1.74 1.155 -2.909 1.829 -3.507 0.383 -0.341 0.73 -0.498 1.038 -0.471 0.3 0.018 0.613 0.209 0.937 0.574 0.125 0.141 0.683 1.117 1.675 2.93 0.992 1.814 1.774 3.044 2.348 3.689 0.573 0.645 1.117 0.966 1.631 0.96 -0.117 0.924 -0.469 1.648 -1.059 2.171Z" fill="#22B3C1"/><path d="M43.512 23.549a4.042 4.042 0 0 1 -0.61 -0.773c-0.312 -0.527 -0.391 -1.018 -0.239 -1.472 0.153 -0.454 0.477 -0.827 0.973 -1.121 -0.332 -0.56 -0.837 -1.082 -1.517 -1.567 0.299 -0.7 0.606 -1.275 0.923 -1.723a3.795 3.795 0 0 1 1.207 -1.128c0.485 -0.287 0.873 -0.393 1.164 -0.318 0.296 0.058 0.552 0.27 0.769 0.636 0.217 0.366 0.479 0.981 0.787 1.845 0.393 -0.319 0.774 -0.669 1.146 -1.048 0.21 0.181 0.419 0.45 0.63 0.805 0.21 0.355 0.267 0.772 0.172 1.25 -0.091 0.461 -0.4 0.847 -0.927 1.159l-0.242 0.144c0.651 1.984 1.257 3.45 1.817 4.398 0.561 0.948 1.12 1.511 1.677 1.691 -0.291 0.884 -0.776 1.527 -1.455 1.928 -0.678 0.402 -1.286 0.493 -1.823 0.272 -0.533 -0.237 -1.051 -0.781 -1.555 -1.632 -0.305 -0.516 -0.92 -1.985 -1.843 -4.404 -0.386 0.33 -0.737 0.683 -1.053 1.059Z" fill="#22B3C1"/><path d="M64.771 9.493c1.451 -0.43 2.393 0.08 2.823 1.532 0.185 0.623 0.317 1.732 0.399 3.327 0.093 1.591 0.252 2.764 0.475 3.519 0.224 0.756 0.514 1.271 0.868 1.544 -0.461 0.777 -1.046 1.27 -1.753 1.48 -1.38 0.409 -2.29 -0.131 -2.731 -1.619 -0.164 -0.551 -0.261 -1.541 -0.292 -2.966 -0.031 -1.426 -0.106 -2.338 -0.223 -2.733 -0.16 -0.54 -0.444 -0.75 -0.852 -0.629 -0.335 0.099 -0.675 0.364 -1.017 0.791 -0.347 0.416 -0.649 0.936 -0.908 1.561 -0.25 0.609 -0.399 1.338 -0.447 2.188a7.007 7.007 0 0 0 0.274 2.444c0.231 0.78 0.524 1.306 0.88 1.58 -0.461 0.776 -1.046 1.269 -1.754 1.479 -1.38 0.409 -2.29 -0.13 -2.731 -1.618 -0.264 -0.888 -0.557 -2.758 -0.881 -5.612 -0.3 -2.508 -0.462 -3.915 -0.488 -4.22l-1.434 -1.141c1.24 -1.32 2.291 -2.108 3.155 -2.364 0.493 -0.146 0.87 -0.147 1.135 -0.004 0.261 0.131 0.459 0.425 0.594 0.881 0.256 0.863 0.45 1.83 0.585 2.9 0.135 1.07 0.2 1.866 0.199 2.388l0.206 0.037c0.633 -2.576 1.939 -4.157 3.919 -4.744Z" fill="#22B3C1"/><path d="M88.029 19.533c-0.819 -0.104 -1.373 -0.407 -1.663 -0.911 -0.288 -0.516 -0.374 -1.232 -0.257 -2.151 0.118 -0.931 0.842 -3.506 2.172 -7.727l-0.734 -2.118c1.517 -0.728 2.853 -1.019 4.008 -0.873 0.956 0.121 1.359 0.765 1.211 1.932 -0.044 0.347 -0.47 1.769 -1.278 4.265 -0.796 2.497 -1.238 4.093 -1.326 4.788l2.011 0.255a14.449 14.449 0 0 0 2.94 -0.365c0.046 0.233 0.045 0.542 -0.004 0.927a3.165 3.165 0 0 1 -0.899 1.872c-0.494 0.518 -1.12 0.729 -1.878 0.633 -0.508 -0.064 -1.372 -0.313 -2.592 -0.744a3.428 3.428 0 0 1 -1.712 0.218Z" fill="#22B3C1"/><path d="M112.03 15.27c0.651 0.259 1.105 0.743 1.362 1.451 0.269 0.712 0.205 1.569 -0.192 2.569 -0.393 0.988 -0.932 1.838 -1.618 2.548 -0.682 0.698 -1.414 1.202 -2.196 1.511a6.944 6.944 0 0 1 -2.435 0.486 6.316 6.316 0 0 1 -2.388 -0.444c-1.523 -0.605 -2.56 -1.501 -3.112 -2.69 -0.551 -1.189 -0.552 -2.474 -0.002 -3.858 0.744 -1.873 1.946 -3.151 3.606 -3.84 1.676 -0.693 3.444 -0.67 5.304 0.069a6.221 6.221 0 0 1 1.2 0.638c-0.024 0.435 -0.128 0.899 -0.31 1.392 0.277 0.016 0.537 0.071 0.781 0.168Zm-3.108 1.572c0.129 -0.325 0.35 -0.662 0.663 -1.009a2.29 2.29 0 0 1 1.156 -0.671c-1.665 -0.285 -2.97 -0.083 -3.916 0.604 -0.814 0.592 -1.387 1.307 -1.72 2.144 -0.332 0.837 -0.432 1.578 -0.298 2.224 0.15 0.639 0.493 1.064 1.028 1.277 1.186 0.471 2.33 0.03 3.434 -1.322 -0.711 -0.956 -0.827 -2.039 -0.346 -3.248Z" fill="#22B3C1"/><path d="M118.454 24.608c1.199 -1.603 2.728 -2.498 4.587 -2.685 1.859 -0.188 3.625 0.344 5.298 1.596 0.862 0.645 1.419 1.32 1.673 2.025 0.261 0.696 0.208 1.289 -0.16 1.779 -0.367 0.491 -0.818 0.74 -1.354 0.745a2.164 2.164 0 0 1 -1.39 -0.43c-0.391 -0.292 -0.673 -0.667 -0.846 -1.125 -0.163 -0.45 -0.185 -0.943 -0.065 -1.478 -0.827 -0.213 -1.672 -0.127 -2.538 0.258 -0.855 0.391 -1.53 0.917 -2.025 1.578 -0.495 0.662 -0.766 1.295 -0.812 1.9 -0.047 0.606 0.14 1.066 0.561 1.381s0.866 0.43 1.336 0.344c0.481 -0.078 0.927 -0.393 1.34 -0.944 1.462 1.095 1.935 1.986 1.418 2.678 -0.442 0.591 -1.229 0.87 -2.36 0.836 -1.124 -0.044 -2.291 -0.519 -3.503 -1.426 -1.212 -0.907 -1.935 -2.01 -2.166 -3.308 -0.214 -1.301 0.121 -2.542 1.006 -3.725Z" fill="#22B3C1"/><path d="m134.453 42.436 -0.041 -0.206c-0.918 0.289 -1.775 0.341 -2.573 0.155 -0.78 -0.184 -1.408 -0.582 -1.887 -1.193 -0.655 -0.837 -0.865 -1.754 -0.628 -2.75 0.237 -0.995 0.883 -1.906 1.937 -2.731 1.635 -1.281 3.432 -1.806 5.392 -1.577 1.967 0.239 3.591 1.177 4.872 2.812a6.873 6.873 0 0 1 0.796 1.26 5.787 5.787 0 0 1 -0.644 0.671c0.701 0.246 1.256 0.63 1.665 1.151 0.563 0.719 0.456 1.384 -0.322 1.993 -0.276 0.216 -1.232 0.71 -2.868 1.483 -1.628 0.782 -2.778 1.436 -3.447 1.96 -0.67 0.524 -1.013 1.04 -1.031 1.545 -0.914 -0.174 -1.607 -0.561 -2.078 -1.162 -0.463 -0.59 -0.625 -1.163 -0.486 -1.716 0.146 -0.543 0.594 -1.109 1.343 -1.695Zm-0.293 -4.514c-0.482 0.378 -0.78 0.769 -0.891 1.175 -0.094 0.407 0.005 0.798 0.299 1.173 0.293 0.375 0.72 0.636 1.282 0.784 0.561 0.149 1.179 0.156 1.855 0.025 1.064 -0.69 2.392 -1.42 3.983 -2.19 -0.779 -0.995 -1.825 -1.59 -3.138 -1.785 -1.313 -0.195 -2.442 0.077 -3.388 0.818Z" fill="#22B3C1"/><path d="m149.683 49.437 0.916 -1.587c1.488 1.032 2.423 1.956 2.803 2.773 0.217 0.465 0.274 0.838 0.171 1.121 -0.091 0.278 -0.398 0.538 -0.92 0.781 -0.511 0.238 -2.081 0.659 -4.711 1.264 -2.626 0.616 -4.421 1.15 -5.384 1.598 -0.964 0.45 -1.562 0.943 -1.795 1.48 -0.926 -0.535 -1.54 -1.126 -1.841 -1.772 -0.301 -0.647 -0.314 -1.22 -0.037 -1.722 0.293 -0.496 0.815 -0.918 1.563 -1.267 0.748 -0.35 2.377 -0.853 4.886 -1.512 2.509 -0.658 3.958 -1.044 4.348 -1.157Z" fill="#22B3C1"/><path d="M155.289 71.375c1.011 -0.07 1.791 0.138 2.34 0.626 0.548 0.489 0.848 1.095 0.899 1.819 0.052 0.737 -0.003 1.744 -0.164 3.022s-0.226 2.236 -0.193 2.873c0.274 1.047 0.588 2.041 0.942 2.982 -0.317 0.123 -0.719 0.201 -1.206 0.235 -1.011 0.071 -1.793 -0.169 -2.346 -0.719 -0.552 -0.539 -0.859 -1.257 -0.923 -2.156 -0.016 -0.224 -0.024 -0.525 -0.026 -0.901 -3.655 -0.433 -5.694 -0.635 -6.119 -0.605 -1.211 0.084 -2.103 0.335 -2.675 0.751 -0.614 -0.709 -0.95 -1.47 -1.006 -2.281 -0.057 -0.811 0.133 -1.408 0.57 -1.789 0.45 -0.383 1.137 -0.607 2.061 -0.672 0.936 -0.066 3.445 0.122 7.527 0.563 -0.286 -1.397 -0.582 -2.568 -0.886 -3.512 0.305 -0.122 0.707 -0.2 1.206 -0.235Z" fill="#22B3C1"/><path d="M158.526 96.12c-0.471 -0.066 -0.845 -0.371 -1.122 -0.916 -0.264 -0.543 -0.353 -1.13 -0.264 -1.762 0.089 -0.632 0.284 -1.117 0.584 -1.453 0.299 -0.325 0.658 -0.457 1.08 -0.398 0.569 0.081 0.978 0.41 1.225 0.988 0.246 0.578 0.328 1.164 0.245 1.759 -0.084 0.595 -0.275 1.054 -0.574 1.379 -0.3 0.337 -0.692 0.472 -1.175 0.403Zm-14.041 -5.675c0.109 -0.769 0.379 -1.299 0.812 -1.591 0.433 -0.293 1.04 -0.385 1.82 -0.274 0.793 0.112 2.85 0.806 6.169 2.083l1.708 -0.821c0.711 1.68 1.003 2.966 0.878 3.858 -0.072 0.508 -0.234 0.852 -0.486 1.031 -0.241 0.181 -0.602 0.238 -1.085 0.17 -0.186 -0.027 -1.244 -0.409 -3.174 -1.149 -1.93 -0.74 -3.323 -1.17 -4.177 -1.29 -0.855 -0.12 -1.476 -0.013 -1.865 0.325 -0.509 -0.78 -0.709 -1.559 -0.599 -2.34Z" fill="#22B3C1"/><path d="M147.602 100.709c1.876 0.698 3.166 1.913 3.871 3.643 0.705 1.731 0.693 3.575 -0.036 5.533 -0.375 1.009 -0.866 1.734 -1.471 2.176 -0.593 0.447 -1.177 0.563 -1.752 0.35 -0.575 -0.214 -0.94 -0.577 -1.097 -1.089 -0.16 -0.5 -0.154 -0.985 0.021 -1.454a2.465 2.465 0 0 1 0.84 -1.129c0.386 -0.284 0.853 -0.444 1.401 -0.48 -0.03 -0.852 -0.351 -1.64 -0.964 -2.362 -0.616 -0.71 -1.312 -1.209 -2.086 -1.497 -0.774 -0.288 -1.458 -0.369 -2.053 -0.243 -0.594 0.126 -0.983 0.436 -1.166 0.928 -0.183 0.493 -0.167 0.952 0.048 1.379 0.21 0.439 0.638 0.778 1.283 1.018 -0.637 1.712 -1.361 2.417 -2.169 2.116 -0.692 -0.257 -1.182 -0.933 -1.469 -2.028 -0.275 -1.09 -0.149 -2.345 0.379 -3.764 0.528 -1.419 1.382 -2.423 2.562 -3.011 1.188 -0.573 2.473 -0.602 3.858 -0.088Z" fill="#22B3C1"/><path d="m145.722 122.213 1.833 0.017c-0.166 1.804 -0.511 3.072 -1.035 3.805 -0.298 0.418 -0.595 0.651 -0.892 0.7 -0.286 0.057 -0.628 -0.056 -1.025 -0.34 -0.387 -0.276 -0.884 -0.732 -1.492 -1.366a65.934 65.934 0 0 1 -2.129 -2.282 57.124 57.124 0 0 0 -1.989 -2.09l0.167 1.573c0.016 0.149 0.038 0.388 0.066 0.716 0.03 0.344 0.057 0.586 0.081 0.726 0.016 0.149 0.041 0.352 0.074 0.606 0.044 0.262 0.091 0.465 0.142 0.609l0.177 0.495c0.122 0.303 0.321 0.552 0.596 0.748 0.285 0.204 0.563 0.341 0.835 0.412 -0.078 1.036 -0.346 1.874 -0.805 2.516 -0.306 0.428 -0.687 0.671 -1.143 0.729 -0.447 0.066 -0.924 -0.084 -1.433 -0.447 -0.509 -0.364 -0.856 -0.965 -1.041 -1.804 -0.181 -0.822 -0.222 -1.713 -0.122 -2.67a17.06 17.06 0 0 0 -3.759 -0.841c-1.232 -0.127 -2.054 -0.084 -2.467 0.129 -0.127 -0.706 0.116 -1.486 0.726 -2.341 0.45 -0.631 1.046 -1.013 1.787 -1.146 0.733 -0.122 1.708 -0.002 2.925 0.36l1.357 0.393 0.345 -2.129a7.748 7.748 0 0 0 -0.493 -0.375c-0.845 -0.603 -1.559 -0.874 -2.14 -0.813 0.01 -1.069 0.223 -1.894 0.637 -2.474s0.909 -0.873 1.481 -0.879c0.576 0.012 1.2 0.257 1.872 0.737 0.672 0.48 1.912 1.65 3.72 3.51 1.807 1.86 2.856 2.932 3.145 3.216Z" fill="#22B3C1"/><path d="M122.042 130.741c1.326 -1.086 2.634 -1.583 3.922 -1.49 1.279 0.101 2.398 0.737 3.358 1.907 1.276 1.559 1.779 3.258 1.507 5.098 -0.273 1.857 -1.218 3.449 -2.835 4.772 -0.9 0.737 -1.749 1.093 -2.546 1.067 -0.79 -0.016 -1.455 -0.353 -1.993 -1.012 -0.737 -0.9 -0.912 -2.01 -0.522 -3.332 0.387 -1.304 1.491 -2.71 3.313 -4.219 -0.536 -0.596 -1.078 -0.97 -1.623 -1.121 -0.537 -0.142 -0.995 -0.059 -1.372 0.25a1.785 1.785 0 0 0 -0.664 1.175c-0.074 0.482 0.122 1.008 0.59 1.579 -1.413 1.158 -2.394 1.403 -2.94 0.735 -0.468 -0.572 -0.56 -1.394 -0.275 -2.468 0.292 -1.064 0.986 -2.045 2.079 -2.941Zm4.808 8.386c0.494 -0.404 0.747 -1.024 0.759 -1.858 0.002 -0.827 -0.178 -1.649 -0.542 -2.468 -0.904 0.87 -1.451 1.683 -1.642 2.437 -0.192 0.773 -0.122 1.361 0.211 1.768 0.158 0.194 0.352 0.302 0.581 0.325 0.219 0.03 0.43 -0.038 0.633 -0.204Z" fill="#22B3C1"/><path d="M116.263 143.496c0.234 0.275 0.417 0.548 0.55 0.817 0.271 0.55 0.313 1.046 0.126 1.487 -0.187 0.441 -0.539 0.789 -1.055 1.043 0.288 0.583 0.752 1.142 1.393 1.678 -0.35 0.675 -0.7 1.224 -1.049 1.648a3.804 3.804 0 0 1 -1.29 1.034c-0.505 0.249 -0.9 0.325 -1.185 0.228 -0.291 -0.08 -0.53 -0.31 -0.719 -0.692 -0.188 -0.382 -0.403 -1.015 -0.644 -1.9 -0.415 0.289 -0.823 0.608 -1.222 0.959 -0.195 -0.197 -0.383 -0.481 -0.566 -0.851 -0.182 -0.371 -0.208 -0.791 -0.077 -1.26 0.125 -0.452 0.463 -0.814 1.013 -1.085l0.253 -0.124c-0.498 -2.028 -0.991 -3.536 -1.478 -4.524s-1.001 -1.592 -1.543 -1.813c0.357 -0.86 0.889 -1.465 1.596 -1.813 0.707 -0.349 1.32 -0.393 1.839 -0.133 0.513 0.277 0.988 0.859 1.426 1.745 0.266 0.539 0.766 2.05 1.503 4.532a8.966 8.966 0 0 0 1.13 -0.976Z" fill="#22B3C1"/></svg>