<svg width="211" height="202" viewBox="0 0 211 202" fill="none" xmlns="http://www.w3.org/2000/svg">
<path d="M71.0093 177.875C71.9507 178.353 72.487 178.958 72.6181 179.689C72.742 180.434 72.5357 181.334 71.9992 182.389C71.4555 183.459 69.4729 186.247 66.0515 190.754L66.0219 193.62C63.8809 193.842 62.1471 193.616 60.8207 192.942C59.7224 192.383 59.514 191.434 60.1954 190.093C60.3984 189.694 61.5248 188.166 63.5744 185.511C65.6099 182.848 66.8306 181.117 67.2366 180.319L64.9259 179.144C63.7621 178.75 62.5296 178.474 61.2283 178.315C61.2733 178.014 61.4081 177.643 61.6328 177.201C62.0606 176.36 62.6908 175.738 63.5235 175.335C64.3419 174.926 65.1861 174.942 66.0562 175.384C66.641 175.681 67.574 176.353 68.8551 177.399C69.6209 177.375 70.339 177.534 71.0093 177.875Z" fill="#22B3C1"/>
<path d="M40.2791 172.65C39.6069 172.057 39.2687 171.279 39.2646 170.316C39.2485 169.342 39.6953 168.339 40.605 167.307C41.5042 166.286 42.52 165.497 43.6523 164.938C44.7741 164.391 45.8724 164.101 46.9472 164.067C48.022 164.033 49.0691 164.188 50.0883 164.532C51.0971 164.887 51.9915 165.409 52.7718 166.097C54.3443 167.482 55.2059 169.01 55.3565 170.678C55.5071 172.346 54.953 173.894 53.6942 175.323C51.991 177.255 49.9923 178.277 47.698 178.388C45.3812 178.5 43.2625 177.71 41.3419 176.017C40.9097 175.637 40.5199 175.208 40.1724 174.731C40.3894 174.218 40.7141 173.705 41.1464 173.19C40.8203 173.052 40.5312 172.872 40.2791 172.65ZM44.6994 172.099C44.4032 172.435 43.992 172.744 43.4657 173.027C42.9274 173.299 42.3671 173.402 41.7848 173.337C43.6655 174.397 45.3238 174.717 46.7597 174.298C47.9953 173.937 48.9938 173.324 49.7555 172.46C50.5172 171.595 50.9567 170.746 51.074 169.911C51.1688 169.077 50.9401 168.417 50.3879 167.931C49.1635 166.852 47.5957 166.888 45.6846 168.04C46.128 169.497 45.7996 170.85 44.6994 172.099Z" fill="#22B3C1"/>
<path d="M36.5753 158.637C34.44 160.049 32.213 160.466 29.8942 159.89C27.5755 159.313 25.6792 157.911 24.2053 155.682C23.4462 154.534 23.0663 153.481 23.0654 152.522C23.0512 151.573 23.371 150.882 24.025 150.449C24.6789 150.017 25.3294 149.913 25.9765 150.137C26.6147 150.348 27.1103 150.72 27.4634 151.254C27.8076 151.775 27.9852 152.348 27.9962 152.973C27.9983 153.586 27.8119 154.189 27.437 154.782C28.34 155.393 29.3952 155.654 30.6025 155.566C31.8011 155.464 32.8407 155.121 33.7216 154.539C34.6024 153.956 35.2016 153.311 35.5193 152.602C35.837 151.893 35.8105 151.258 35.4399 150.698C35.0692 150.137 34.5823 149.807 33.9791 149.707C33.3671 149.594 32.6941 149.78 31.9601 150.266C30.6716 148.317 30.4877 147.038 31.4086 146.429C32.1959 145.909 33.2632 145.913 34.6103 146.441C35.944 146.979 37.1448 148.055 38.2127 149.67C39.2807 151.285 39.674 152.923 39.3927 154.587C39.0892 156.245 38.1501 157.595 36.5753 158.637Z" fill="#22B3C1"/>
<path d="M25.0071 130.272L24.9687 130.538C26.1982 130.585 27.2526 130.893 28.1321 131.461C28.9913 132.019 29.5771 132.769 29.8893 133.71C30.3173 135.001 30.1737 136.195 29.4586 137.292C28.7434 138.389 27.5733 139.206 25.9483 139.745C23.4273 140.581 21.0368 140.438 18.7769 139.316C16.512 138.179 14.9616 136.35 14.1257 133.829C13.9092 133.176 13.771 132.556 13.7113 131.969C14.1063 131.737 14.4607 131.561 14.7746 131.44C14.0369 130.842 13.5346 130.14 13.2677 129.335C12.9001 128.226 13.3162 127.473 14.5159 127.075C14.9412 126.934 16.305 126.752 18.6075 126.528C20.905 126.289 22.5701 125.998 23.6028 125.655C24.6355 125.313 25.2712 124.841 25.51 124.239C26.5362 124.843 27.2028 125.608 27.51 126.534C27.8121 127.446 27.7603 128.205 27.3546 128.811C26.9438 129.402 26.1613 129.889 25.0071 130.272ZM23.4121 135.833C24.1562 135.586 24.683 135.243 24.9923 134.803C25.2814 134.353 25.3303 133.84 25.139 133.263C24.9476 132.685 24.5462 132.186 23.9346 131.765C23.3231 131.345 22.5823 131.068 21.7122 130.935C20.133 131.307 18.22 131.612 15.9731 131.852C16.4817 133.385 17.4842 134.553 18.9806 135.355C20.4769 136.157 21.9541 136.316 23.4121 135.833Z" fill="#22B3C1"/>
<path d="M17.7768 113.295C17.8731 114.411 17.2437 115.027 15.8887 115.144C15.554 115.173 14.5435 115.188 12.8574 115.189C11.1539 115.175 9.95145 115.198 9.25006 115.259C8.54866 115.319 8.02386 115.565 7.67566 115.997C6.51687 115.037 5.86323 113.696 5.71473 111.975C5.56623 110.253 6.31294 109.321 7.95484 109.18C8.70406 109.115 9.48681 109.16 10.3031 109.314C11.1194 109.469 11.856 109.63 12.5129 109.798C13.1684 109.951 13.6856 110.083 14.0646 110.194C14.4263 110.292 14.9204 110.434 15.5468 110.621C16.1558 110.793 16.5262 110.898 16.6578 110.934C16.9723 111.228 17.2298 111.608 17.4305 112.072C17.6297 112.521 17.7452 112.928 17.7768 113.295ZM19.5314 113.529C19.5988 114.31 19.9608 114.969 20.6174 115.507C21.2741 116.045 21.9849 116.28 22.7501 116.214C23.4993 116.15 24.1004 115.857 24.5533 115.336C24.9889 114.801 25.173 114.142 25.1056 113.361C25.0383 112.58 24.6763 111.921 24.0196 111.383C23.363 110.846 22.6601 110.609 21.9109 110.674C21.1457 110.74 20.5453 111.041 20.1097 111.576C19.6568 112.097 19.4641 112.748 19.5314 113.529Z" fill="#22B3C1"/>
<path d="M10.7016 99.9426C9.41659 99.7745 8.49242 99.3148 7.92912 98.5633C7.36582 97.8119 7.14435 96.9762 7.26471 96.056C7.38715 95.12 7.71181 93.8715 8.2387 92.3107C8.7656 90.7498 9.08989 89.5659 9.21159 88.7589C9.13415 87.3772 8.99288 86.0516 8.78777 84.7823C9.21686 84.7093 9.74077 84.7133 10.3595 84.7943C11.6446 84.9624 12.5635 85.4618 13.1165 86.2925C13.6715 87.1074 13.8743 88.0859 13.7248 89.2282C13.6875 89.5138 13.6218 89.8925 13.5278 90.3642C17.9986 91.8365 20.5037 92.608 21.0432 92.6785C22.582 92.8798 23.7634 92.7923 24.5871 92.416C25.1765 93.4612 25.4038 94.4995 25.2689 95.5307C25.134 96.5619 24.744 97.2613 24.0989 97.6287C23.438 97.994 22.5205 98.0999 21.3465 97.9464C20.1566 97.7907 17.0597 96.9177 12.0557 95.3272C12.0592 97.1511 12.1317 98.6935 12.2734 99.9546C11.8601 100.03 11.3362 100.026 10.7016 99.9426Z" fill="#22B3C1"/>
<path d="M30.2415 67.5707C27.3508 65.6182 25.3836 64.2998 24.3399 63.6156C22.7877 62.598 21.4001 62.2048 20.177 62.4361C20.0578 61.3631 20.2702 60.4118 20.814 59.5822C21.4895 58.5519 22.3893 58.1278 23.5135 58.31C24.6242 58.4833 26.036 59.1315 27.7488 60.2543C29.4615 61.3772 31.0854 62.4896 32.6205 63.5917L33.0679 62.9092C31.8825 60.5442 30.8225 58.8927 29.8878 57.9546C29.1966 57.5206 28.348 57.1078 27.3421 56.7161C26.3315 56.3023 25.5754 56.0841 25.0738 56.0613C24.9511 55.6939 24.9455 55.2502 25.0568 54.7301C25.1548 54.2013 25.3705 53.6826 25.7039 53.1741C26.0372 52.6657 26.4981 52.2982 27.0866 52.0718C27.6838 51.832 28.2835 51.9095 28.8857 52.3042C29.2603 52.5499 29.5754 52.8425 29.831 53.1823C30.0866 53.522 30.3555 53.8705 30.6379 54.2278C30.9068 54.5763 31.1287 54.8653 31.3035 55.0947L36.068 58.333L36.5154 57.6506C35.5435 55.9229 34.4542 54.2139 33.2474 52.5236C32.0494 50.8198 31.0289 49.6916 30.1859 49.139C29.8782 48.9372 29.5376 48.8001 29.1643 48.7275C29.1854 47.4404 29.4723 46.3753 30.025 45.5323C30.7443 44.4351 31.7329 44.2988 32.9907 45.1234C33.5661 45.5006 34.1921 46.1215 34.8689 46.9861C35.5323 47.8419 36.3446 49.0249 37.3059 50.5352C38.2626 52.0234 38.759 52.7984 38.795 52.8602L40.1433 53.3424C40.2026 54.1274 40.0999 55.1889 39.835 56.5267C39.579 57.8511 39.1658 58.9482 38.5956 59.8179C37.6833 61.2095 36.5262 61.6467 35.1244 61.1294C35.5174 63.1855 35.2534 64.916 34.3323 66.321C33.8235 67.0971 33.2197 67.6387 32.5209 67.9459C31.8175 68.2308 31.0577 68.1058 30.2415 67.5707Z" fill="#22B3C1"/>
<path d="M42.248 28.1852C42.6518 28.6397 42.7632 29.247 42.5823 30.007C42.3908 30.755 41.99 31.4 41.38 31.9419C40.7699 32.4839 40.1792 32.7946 39.6078 32.8742C39.0484 32.9431 38.5881 32.7743 38.2268 32.3676C37.7379 31.8173 37.6126 31.1583 37.8506 30.3903C38.0887 29.6224 38.4948 28.9834 39.0689 28.4733C39.6431 27.9632 40.2099 27.6737 40.7693 27.6048C41.3406 27.5252 41.8335 27.7187 42.248 28.1852ZM51.2301 45.3422C50.4885 46.001 49.7855 46.2938 49.1212 46.2206C48.4568 46.1473 47.7899 45.7339 47.1205 44.9803C46.4404 44.2148 45.0113 41.8353 42.8333 37.8419L40.4896 37.2273C41.1878 35.0019 41.9675 33.5067 42.8287 32.7415C43.3191 32.3059 43.7617 32.1053 44.1563 32.14C44.5403 32.1627 44.9395 32.4073 45.3539 32.8738C45.5133 33.0532 46.2272 34.3024 47.4955 36.6214C48.7638 38.9404 49.7645 40.5125 50.4978 41.3379C51.231 42.1632 51.9265 42.5726 52.5842 42.5662C52.4351 43.7474 51.9837 44.6727 51.2301 45.3422Z" fill="#22B3C1"/>
<path d="M55.6434 30.1137C55.3189 29.7852 55.0589 29.4557 54.8633 29.1252C54.4641 28.4505 54.3623 27.8228 54.558 27.2423C54.7536 26.6618 55.1682 26.1841 55.8016 25.8093C55.3779 25.0933 54.7317 24.4252 53.8629 23.8052C54.2443 22.9103 54.6371 22.1759 55.0413 21.6022C55.4511 21.0065 55.9658 20.5253 56.5854 20.1587C57.2051 19.7921 57.7012 19.6565 58.0738 19.7521C58.4521 19.8258 58.7797 20.0967 59.0567 20.5649C59.3337 21.0331 59.6691 21.82 60.063 22.9255C60.5649 22.517 61.0533 22.0699 61.5283 21.5844C61.7958 21.8166 62.0639 22.1599 62.3328 22.6143C62.6017 23.0687 62.6752 23.6015 62.5535 24.2127C62.4374 24.8019 62.0419 25.2961 61.3672 25.6954L61.0573 25.8787C61.8896 28.4165 62.6643 30.2914 63.3813 31.5031C64.0982 32.7149 64.8127 33.4355 65.5248 33.6649C65.1529 34.7959 64.5331 35.618 63.6656 36.1313C62.7981 36.6446 62.0208 36.7606 61.3338 36.4792C60.6524 36.1759 59.9899 35.4803 59.3462 34.3925C58.9552 33.7315 58.1696 31.8539 56.9894 28.7596C56.4957 29.1819 56.047 29.6333 55.6434 30.1137Z" fill="#22B3C1"/>
<path d="M82.8283 12.1395C84.6845 11.5894 85.8876 12.2424 86.4378 14.0986C86.6742 14.8963 86.8443 16.3144 86.9478 18.353C87.0668 20.3871 87.2695 21.8874 87.5559 22.8538C87.8424 23.8202 88.2126 24.4782 88.6666 24.8275C88.0764 25.8202 87.3287 26.4507 86.4236 26.7189C84.6595 27.2418 83.4955 26.5521 82.9317 24.6499C82.7225 23.9443 82.598 22.6795 82.5581 20.8557C82.5181 19.0318 82.4231 17.8668 82.2731 17.3606C82.0685 16.6703 81.7054 16.4024 81.1838 16.557C80.7543 16.6843 80.3202 17.0215 79.8816 17.5687C79.4385 18.1006 79.0517 18.766 78.721 19.5649C78.4012 20.3439 78.2104 21.2765 78.1486 22.3629C78.0822 23.4339 78.199 24.4757 78.4991 25.4881C78.7947 26.4852 79.1695 27.1585 79.6235 27.5079C79.0332 28.5005 78.2855 29.131 77.3805 29.3993C75.6163 29.9221 74.4524 29.2325 73.8886 27.3303C73.5521 26.1951 73.1769 23.8031 72.7629 20.1543C72.3797 16.947 72.1718 15.1479 72.1394 14.757L70.3052 13.2981C71.8908 11.6099 73.2359 10.6021 74.3404 10.2747C74.9694 10.0883 75.4529 10.0868 75.791 10.2703C76.1245 10.4385 76.3777 10.814 76.5504 11.3969C76.8778 12.5014 77.1273 13.7375 77.2991 15.1051C77.4708 16.4727 77.5555 17.4905 77.5533 18.1587L77.8175 18.2056C78.6269 14.9118 80.2971 12.8898 82.8283 12.1395Z" fill="#22B3C1"/>
<path d="M112.57 24.9778C111.523 24.845 110.814 24.4568 110.444 23.8132C110.076 23.1537 109.966 22.2366 110.115 21.062C110.266 19.8715 111.192 16.5778 112.892 11.1807L111.953 8.47314C113.893 7.54173 115.601 7.16957 117.078 7.35665C118.3 7.51155 118.816 8.33503 118.627 9.8271C118.571 10.2715 118.026 12.0895 116.993 15.2808C115.975 18.4743 115.41 20.5154 115.297 21.4043L117.869 21.7302C119.097 21.7085 120.351 21.5528 121.629 21.2633C121.688 21.5611 121.687 21.956 121.624 22.4481C121.506 23.3846 121.122 24.1827 120.474 24.8424C119.842 25.5042 119.042 25.7737 118.073 25.651C117.423 25.5685 116.318 25.2511 114.759 24.6987C114.046 24.9793 113.316 25.0723 112.57 24.9778Z" fill="#22B3C1"/>
<path d="M143.262 19.5274C144.095 19.8582 144.675 20.4764 145.004 21.3818C145.348 22.2932 145.266 23.3882 144.758 24.667C144.256 25.9309 143.566 27.0169 142.689 27.9252C141.817 28.8185 140.881 29.4624 139.881 29.857C138.88 30.2515 137.843 30.4589 136.767 30.4792C135.697 30.4846 134.679 30.2954 133.713 29.9113C131.765 29.1374 130.439 27.9907 129.734 26.4711C129.029 24.9515 129.028 23.307 129.731 21.5375C130.683 19.1435 132.219 17.5073 134.342 16.6289C136.485 15.7415 138.746 15.7705 141.125 16.7157C141.66 16.9284 142.172 17.2006 142.66 17.5322C142.629 18.0879 142.496 18.6809 142.263 19.3113C142.617 19.3313 142.95 19.4033 143.262 19.5274ZM139.287 21.5377C139.452 21.1213 139.735 20.6913 140.135 20.2477C140.55 19.81 141.042 19.5236 141.613 19.3886C139.484 19.0251 137.815 19.283 136.605 20.1623C135.564 20.9194 134.831 21.8332 134.405 22.9038C133.98 23.9744 133.853 24.9225 134.024 25.7481C134.216 26.5647 134.654 27.1089 135.338 27.3806C136.855 27.9832 138.318 27.4198 139.729 25.6903C138.82 24.4683 138.672 23.0841 139.287 21.5377Z" fill="#22B3C1"/>
<path d="M151.477 31.469C153.01 29.4192 154.966 28.2745 157.343 28.0349C159.72 27.7953 161.979 28.4758 164.118 30.0765C165.22 30.9008 165.933 31.764 166.257 32.666C166.591 33.5552 166.523 34.3137 166.053 34.9414C165.584 35.5692 165.007 35.8867 164.322 35.8939C163.65 35.9107 163.058 35.7274 162.545 35.344C162.045 34.9702 161.685 34.4906 161.463 33.9052C161.255 33.3295 161.227 32.6991 161.38 32.0141C160.323 31.7434 159.242 31.8535 158.135 32.3444C157.041 32.8448 156.178 33.5179 155.546 34.3634C154.913 35.209 154.567 36.019 154.507 36.7934C154.447 37.5679 154.686 38.1564 155.224 38.559C155.762 38.9616 156.332 39.1081 156.933 38.9986C157.548 38.8987 158.118 38.4964 158.646 37.7918C160.516 39.1912 161.121 40.3329 160.459 41.2168C159.894 41.9727 158.888 42.3291 157.441 42.286C156.004 42.2301 154.511 41.6222 152.961 40.4624C151.411 39.3027 150.487 37.8926 150.191 36.2321C149.917 34.5684 150.346 32.9807 151.477 31.469Z" fill="#22B3C1"/>
<path d="M171.937 54.2666L171.884 54.0036C170.71 54.3738 169.614 54.4398 168.594 54.2018C167.597 53.9665 166.793 53.4584 166.181 52.6774C165.343 51.6066 165.075 50.4343 165.378 49.1605C165.681 47.8867 166.507 46.7221 167.855 45.6666C169.946 44.0291 172.244 43.357 174.75 43.6505C177.266 43.9565 179.342 45.1551 180.98 47.2463C181.404 47.7879 181.743 48.325 181.998 48.8574C181.704 49.2092 181.43 49.495 181.175 49.7147C182.072 50.0289 182.781 50.5198 183.304 51.1875C184.024 52.1071 183.887 52.9565 182.892 53.7358C182.539 54.012 181.317 54.644 179.225 55.6318C177.143 56.6322 175.673 57.4678 174.817 58.1386C173.96 58.8094 173.521 59.4683 173.499 60.1153C172.33 59.8932 171.444 59.398 170.842 58.6295C170.25 57.8737 170.043 57.1419 170.22 56.434C170.407 55.7388 170.98 55.0163 171.937 54.2666ZM171.562 48.4939C170.945 48.9773 170.565 49.4781 170.422 49.9964C170.302 50.5174 170.429 51.0173 170.804 51.496C171.179 51.9747 171.725 52.309 172.443 52.4989C173.16 52.6888 173.951 52.6995 174.815 52.531C176.176 51.6481 177.874 50.7149 179.908 49.7315C178.912 48.4592 177.574 47.6981 175.895 47.4482C174.216 47.1984 172.772 47.5469 171.562 48.4939Z" fill="#22B3C1"/>
<path d="M191.413 63.2198L192.585 61.1905C194.488 62.5097 195.684 63.6913 196.17 64.7355C196.448 65.33 196.52 65.808 196.389 66.1695C196.272 66.5242 195.88 66.857 195.213 67.168C194.56 67.4722 192.552 68.0112 189.188 68.7851C185.83 69.5734 183.535 70.2549 182.303 70.8295C181.07 71.4042 180.305 72.0346 180.007 72.7207C178.823 72.0369 178.038 71.2816 177.653 70.455C177.268 69.6284 177.252 68.8943 177.606 68.2526C177.981 67.6187 178.648 67.0786 179.605 66.6325C180.562 66.1863 182.645 65.5419 185.853 64.6994C189.061 63.8568 190.915 63.3637 191.413 63.2198Z" fill="#22B3C1"/>
<path d="M198.582 91.2729C199.875 91.1822 200.872 91.4491 201.574 92.0735C202.275 92.698 202.658 93.473 202.723 94.3988C202.789 95.3405 202.719 96.6285 202.513 98.2629C202.307 99.8974 202.224 101.122 202.266 101.937C202.616 103.276 203.018 104.547 203.471 105.75C203.065 105.907 202.551 106.007 201.929 106.051C200.636 106.142 199.636 105.835 198.929 105.131C198.223 104.442 197.83 103.524 197.749 102.374C197.729 102.087 197.718 101.703 197.716 101.222C193.042 100.668 190.434 100.41 189.891 100.448C188.343 100.556 187.202 100.877 186.47 101.409C185.685 100.502 185.255 99.5297 185.183 98.4923C185.11 97.4548 185.353 96.6919 185.912 96.2036C186.487 95.7142 187.366 95.428 188.547 95.3451C189.744 95.2612 192.952 95.5012 198.173 96.0653C197.807 94.2785 197.429 92.7813 197.04 91.5736C197.43 91.4179 197.944 91.3177 198.582 91.2729Z" fill="#22B3C1"/>
<path d="M202.721 122.917C202.119 122.833 201.64 122.442 201.286 121.746C200.948 121.052 200.835 120.301 200.949 119.493C201.063 118.685 201.312 118.065 201.696 117.635C202.078 117.22 202.538 117.05 203.077 117.126C203.805 117.229 204.328 117.65 204.644 118.39C204.959 119.129 205.064 119.879 204.957 120.639C204.849 121.4 204.605 121.987 204.223 122.402C203.839 122.833 203.338 123.005 202.721 122.917ZM184.766 115.66C184.905 114.677 185.251 113.999 185.804 113.625C186.358 113.25 187.134 113.133 188.132 113.274C189.146 113.417 191.776 114.305 196.021 115.938L198.205 114.888C199.114 117.036 199.488 118.681 199.328 119.821C199.236 120.471 199.029 120.91 198.706 121.139C198.398 121.371 197.936 121.443 197.318 121.356C197.08 121.322 195.727 120.833 193.259 119.887C190.791 118.941 189.01 118.391 187.917 118.237C186.824 118.083 186.029 118.221 185.532 118.652C184.881 117.655 184.625 116.658 184.766 115.66Z" fill="#22B3C1"/>
<path d="M188.752 128.785C191.151 129.678 192.801 131.231 193.702 133.444C194.603 135.657 194.588 138.016 193.656 140.52C193.176 141.81 192.549 142.737 191.775 143.303C191.017 143.874 190.27 144.023 189.535 143.75C188.8 143.476 188.333 143.012 188.132 142.357C187.927 141.717 187.935 141.097 188.159 140.498C188.376 139.913 188.734 139.432 189.233 139.054C189.727 138.691 190.324 138.486 191.024 138.44C190.986 137.35 190.575 136.343 189.791 135.42C189.003 134.512 188.113 133.874 187.124 133.506C186.134 133.138 185.259 133.034 184.499 133.195C183.739 133.356 183.242 133.752 183.008 134.382C182.774 135.012 182.794 135.6 183.069 136.146C183.338 136.707 183.885 137.141 184.71 137.448C183.895 139.637 182.97 140.539 181.936 140.154C181.051 139.825 180.425 138.961 180.058 137.561C179.706 136.167 179.868 134.562 180.543 132.748C181.218 130.933 182.31 129.649 183.819 128.897C185.338 128.164 186.982 128.127 188.752 128.785Z" fill="#22B3C1"/>
<path d="M186.348 156.284L188.692 156.306C188.48 158.613 188.039 160.234 187.369 161.172C186.988 161.706 186.608 162.004 186.228 162.067C185.862 162.14 185.425 161.995 184.917 161.632C184.422 161.279 183.786 160.696 183.009 159.885C182.222 159.087 181.314 158.115 180.286 156.967C179.248 155.832 178.4 154.941 177.742 154.294L177.956 156.306C177.977 156.497 178.005 156.802 178.04 157.221C178.079 157.661 178.113 157.971 178.143 158.15C178.164 158.341 178.195 158.6 178.238 158.925C178.294 159.26 178.354 159.52 178.419 159.704C178.484 159.888 178.56 160.099 178.645 160.337C178.801 160.724 179.055 161.043 179.407 161.294C179.771 161.555 180.127 161.73 180.475 161.821C180.375 163.146 180.032 164.218 179.446 165.038C179.055 165.585 178.568 165.896 177.984 165.97C177.413 166.054 176.802 165.863 176.151 165.398C175.5 164.933 175.056 164.164 174.82 163.091C174.588 162.04 174.536 160.901 174.664 159.676C173.035 159.121 171.432 158.763 169.857 158.601C168.282 158.439 167.23 158.494 166.702 158.766C166.54 157.863 166.85 156.866 167.631 155.772C168.207 154.965 168.969 154.477 169.916 154.307C170.853 154.151 172.1 154.305 173.657 154.768L175.392 155.27L175.833 152.547C175.699 152.432 175.489 152.272 175.203 152.067C174.122 151.296 173.21 150.949 172.466 151.027C172.479 149.66 172.751 148.605 173.281 147.863C173.811 147.121 174.443 146.746 175.175 146.739C175.912 146.754 176.71 147.068 177.569 147.682C178.428 148.296 180.014 149.792 182.326 152.171C184.637 154.55 185.978 155.921 186.348 156.284Z" fill="#22B3C1"/>
<path d="M156.066 167.19C157.762 165.801 159.434 165.166 161.082 165.284C162.718 165.413 164.149 166.226 165.376 167.723C167.008 169.716 167.651 171.889 167.303 174.242C166.954 176.617 165.745 178.652 163.678 180.345C162.527 181.288 161.442 181.743 160.422 181.71C159.412 181.689 158.562 181.258 157.873 180.416C156.93 179.265 156.707 177.845 157.205 176.155C157.7 174.487 159.112 172.689 161.442 170.76C160.756 169.998 160.064 169.52 159.367 169.326C158.68 169.144 158.095 169.251 157.613 169.646C157.13 170.042 156.847 170.542 156.764 171.148C156.669 171.764 156.92 172.437 157.519 173.167C155.712 174.648 154.458 174.961 153.759 174.107C153.16 173.376 153.043 172.325 153.407 170.951C153.781 169.59 154.668 168.336 156.066 167.19ZM162.214 177.914C162.846 177.397 163.169 176.605 163.184 175.538C163.187 174.481 162.956 173.429 162.491 172.382C161.335 173.495 160.635 174.534 160.391 175.499C160.145 176.487 160.235 177.24 160.661 177.76C160.863 178.008 161.111 178.146 161.404 178.175C161.684 178.214 161.954 178.127 162.214 177.914Z" fill="#22B3C1"/>
<path d="M148.676 183.501C148.975 183.853 149.209 184.202 149.379 184.546C149.726 185.249 149.779 185.883 149.54 186.447C149.301 187.011 148.851 187.456 148.191 187.781C148.559 188.527 149.153 189.242 149.972 189.927C149.524 190.79 149.077 191.492 148.63 192.034C148.176 192.597 147.626 193.037 146.981 193.356C146.335 193.674 145.83 193.772 145.466 193.648C145.094 193.546 144.788 193.251 144.547 192.763C144.307 192.275 144.032 191.465 143.723 190.333C143.192 190.702 142.671 191.111 142.16 191.559C141.911 191.307 141.67 190.944 141.436 190.471C141.203 189.997 141.17 189.46 141.338 188.86C141.498 188.282 141.93 187.819 142.633 187.472L142.956 187.313C142.319 184.719 141.689 182.791 141.066 181.528C140.443 180.265 139.786 179.492 139.093 179.21C139.55 178.11 140.23 177.337 141.134 176.892C142.038 176.446 142.822 176.389 143.486 176.722C144.142 177.076 144.75 177.82 145.309 178.953C145.649 179.642 146.289 181.574 147.231 184.749C147.756 184.366 148.237 183.95 148.676 183.501Z" fill="#22B3C1"/>
</svg>
