<svg xmlns="http://www.w3.org/2000/svg" version="1.1" width="56px" height="35px" style="shape-rendering:geometricPrecision; text-rendering:geometricPrecision; image-rendering:optimizeQuality; fill-rule:evenodd; clip-rule:evenodd" xmlns:xlink="http://www.w3.org/1999/xlink">
  <g>
    <path style="opacity:0.791" fill="#22b3c1" d="M 4.5,-0.5 C 6.5,-0.5 8.5,-0.5 10.5,-0.5C 13.4789,3.14562 16.8123,6.47896 20.5,9.5C 24.7035,5.53871 28.8701,5.53871 33,9.5C 36.3709,6.29747 39.5375,2.96414 42.5,-0.5C 44.5,-0.5 46.5,-0.5 48.5,-0.5C 48.6621,1.5273 48.4955,3.5273 48,5.5C 43.8333,9.66667 39.6667,13.8333 35.5,18C 31.7697,18.9795 28.9364,17.8128 27,14.5C 24.7487,18.1265 21.5821,19.2931 17.5,18C 13.3333,13.8333 9.16667,9.66667 5,5.5C 4.50454,3.5273 4.33788,1.5273 4.5,-0.5 Z"/>
  </g>
  <g>
    <path style="opacity:0.834" fill="#22b3c1" d="M 37.5,34.5 C 35.5,34.5 33.5,34.5 31.5,34.5C 29.8968,33.4036 28.3968,32.0703 27,30.5C 25.6032,32.0703 24.1032,33.4036 22.5,34.5C 20.5,34.5 18.5,34.5 16.5,34.5C 10.8055,28.4737 5.13883,22.4737 -0.5,16.5C -0.5,16.1667 -0.5,15.8333 -0.5,15.5C 1.36227,12.6699 4.02893,11.8366 7.5,13C 11.3484,17.0156 15.3484,20.8489 19.5,24.5C 24.4233,19.2566 29.4233,19.2566 34.5,24.5C 38.6516,20.8489 42.6516,17.0156 46.5,13C 52.0943,11.0868 54.261,12.9202 53,18.5C 47.6303,23.702 42.4636,29.0353 37.5,34.5 Z"/>
  </g>
</svg>
